<svg width="44" height="35" viewBox="0 0 44 35" fill="none" xmlns="http://www.w3.org/2000/svg">
<path d="M26.4 21.875H17.6C16.3852 21.875 15.4 22.8546 15.4 24.0625V32.8125C15.4 34.0204 16.3852 35 17.6 35H26.4C27.6148 35 28.6 34.0204 28.6 32.8125V24.0625C28.6 22.8546 27.6148 21.875 26.4 21.875ZM13.2 2.1875C13.2 0.97959 12.2148 0 11 0H2.2C0.985188 0 0 0.97959 0 2.1875V10.9375C0 12.1454 0.985188 13.125 2.2 13.125H8.78075L13.8105 21.8777C14.5736 20.5748 15.9775 19.6875 17.6 19.6875H17.6193L13.2 11.9978V8.75H28.6V4.375H13.2V2.1875ZM41.8 0H33C31.7852 0 30.8 0.97959 30.8 2.1875V10.9375C30.8 12.1454 31.7852 13.125 33 13.125H41.8C43.0148 13.125 44 12.1454 44 10.9375V2.1875C44 0.97959 43.0148 0 41.8 0Z" fill="#D0D0D5"/>
</svg>
