<svg width="42" height="35" viewBox="0 0 42 35" fill="none" xmlns="http://www.w3.org/2000/svg">
<g clip-path="url(#clip0)">
<path d="M6.16875 15.3125C8.43705 15.3125 10.2812 13.3506 10.2812 10.9375C10.2812 8.52441 8.43705 6.5625 6.16875 6.5625C3.90045 6.5625 2.05625 8.52441 2.05625 10.9375C2.05625 13.3506 3.90045 15.3125 6.16875 15.3125ZM34.9563 15.3125C37.2246 15.3125 39.0688 13.3506 39.0688 10.9375C39.0688 8.52441 37.2246 6.5625 34.9563 6.5625C32.688 6.5625 30.8438 8.52441 30.8438 10.9375C30.8438 13.3506 32.688 15.3125 34.9563 15.3125ZM37.0125 17.5H32.9C31.7691 17.5 30.7474 17.9854 30.002 18.7715C32.5916 20.2822 34.4293 23.0098 34.8277 26.25H39.0688C40.2061 26.25 41.125 25.2725 41.125 24.0625V21.875C41.125 19.4619 39.2808 17.5 37.0125 17.5ZM20.5625 17.5C24.5401 17.5 27.7594 14.0752 27.7594 9.84375C27.7594 5.6123 24.5401 2.1875 20.5625 2.1875C16.5849 2.1875 13.3656 5.6123 13.3656 9.84375C13.3656 14.0752 16.5849 17.5 20.5625 17.5ZM25.4975 19.6875H24.9642C23.6276 20.3711 22.1432 20.7812 20.5625 20.7812C18.9818 20.7812 17.5038 20.3711 16.1608 19.6875H15.6275C11.5407 19.6875 8.225 23.2148 8.225 27.5625V29.5312C8.225 31.3428 9.60654 32.8125 11.3094 32.8125H29.8156C31.5185 32.8125 32.9 31.3428 32.9 29.5312V27.5625C32.9 23.2148 29.5843 19.6875 25.4975 19.6875ZM11.123 18.7715C10.3776 17.9854 9.35594 17.5 8.225 17.5H4.1125C1.8442 17.5 0 19.4619 0 21.875V24.0625C0 25.2725 0.918887 26.25 2.05625 26.25H6.29084C6.69566 23.0098 8.53344 20.2822 11.123 18.7715Z" fill="#D0D0D5"/>
</g>
<defs>
<clipPath id="clip0">
<rect width="41.125" height="35" fill="white"/>
</clipPath>
</defs>
</svg>
